#N canvas 224 208 1434 558 12;
#X msg 730 610 connect 127.0.0.1 9081;
#X msg 940 650 disconnect;
#X obj 580 660 netsend;
#X msg 70 530 send s1cutoff \$1;
#X msg 30 230 send TremoAm \$1;
#X floatatom 30 200 5 0.01 1 0 - TremoAm -, f 5;
#X floatatom 160 200 5 1 40 0 - TremoFre -, f 5;
#X msg 160 230 send TremoFre \$1;
#X floatatom 90 260 5 0 1 0 - FlanFB -, f 5;
#X floatatom 220 260 5 0.5 40 0 - FlanFre -, f 5;
#X msg 90 290 send FlanFB \$1;
#X msg 220 290 send FlanFre \$1;
#X floatatom 70 480 5 0 1 0 - s1cutoff -, f 5;
#X floatatom 70 570 5 0 1 0 - voicePan -, f 5;
#X msg 70 610 send voicePan \$1;
#X floatatom 70 380 5 0 1 0 - padcutoff -, f 5;
#X msg 70 420 send padcutoff \$1;
#X floatatom 770 360 5 0 1 0 - snloudness -, f 5;
#X floatatom 770 430 5 0 1 0 - d1loudness -, f 5;
#X msg 770 400 send snloudness \$1;
#X msg 770 470 send d1loudness \$1;
#X floatatom 490 280 5 0 0 0 - keynote -, f 5;
#X floatatom 490 440 5 0 0 0 - - -, f 5;
#X msg 490 470 send pluckecho \$1;
#X msg 490 370 -2;
#X msg 540 370 -3;
#X msg 590 370 -4;
#X floatatom 770 280 5 0 10 0 - bass1index -, f 5;
#X msg 770 320 send bass1index \$1;
#X obj 490 310 sel 115 100 102, f 19;
#X obj 1030 430 bng 36 250 50 0 empty netconnect empty 17 7 0 10 #000000
#ffffff #000000;
#X obj 1180 510 bng 36 250 50 0 empty netdisconnect empty 17 7 0 10
#000000 #ffffff #000000;
#X connect 0 0 2 0;
#X connect 1 0 2 0;
#X connect 3 0 2 0;
#X connect 4 0 2 0;
#X connect 5 0 4 0;
#X connect 6 0 7 0;
#X connect 7 0 2 0;
#X connect 8 0 10 0;
#X connect 9 0 11 0;
#X connect 10 0 2 0;
#X connect 11 0 2 0;
#X connect 12 0 3 0;
#X connect 13 0 14 0;
#X connect 14 0 2 0;
#X connect 15 0 16 0;
#X connect 16 0 2 0;
#X connect 17 0 19 0;
#X connect 18 0 20 0;
#X connect 19 0 2 0;
#X connect 20 0 2 0;
#X connect 21 0 29 0;
#X connect 22 0 23 0;
#X connect 23 0 2 0;
#X connect 24 0 22 0;
#X connect 25 0 22 0;
#X connect 26 0 22 0;
#X connect 27 0 28 0;
#X connect 28 0 2 0;
#X connect 29 0 24 0;
#X connect 29 1 25 0;
#X connect 29 2 26 0;
#X connect 30 0 0 0;
#X connect 31 0 1 0;
