#N canvas 507 176 637 411 12;
#X obj 56 84 netreceive -b;
#X floatatom 56 111 5 0 0 0 - - -, f 5;
#X obj 56 168 sel 1;
#X obj 56 195 bng 19 250 50 0 empty empty empty 0 -10 0 12 #fcfcfc
#000000 #000000;
#X obj 57 301 readsf~ 2;
#X obj 59 352 dac~;
#X msg 30 240 open water-drip-single-2.wav \, 1;
#X obj 56 138 > 100;
#X msg 60 50 listen 3600;
#X connect 0 0 1 0;
#X connect 1 0 7 0;
#X connect 2 0 3 0;
#X connect 3 0 6 0;
#X connect 4 0 5 0;
#X connect 4 0 5 1;
#X connect 6 0 4 0;
#X connect 7 0 2 0;
#X connect 8 0 0 0;
